REM DIRINDEX 1\5,1\2\6,1\2\7,1\3\8,1\3\9,1\4\10,1\4\11,1\4\12
REM DIRNAME cjc026,folder01,folder02,folder03,folder04,folder05,folder06,folder07,folder08,folder09,folder10,folder11
TITLE ""
FILE "EJE_DB3000_5th_2A_32.mp3" MP3
  TRACK 01 AUDIO
    TITLE "0:"
    INDEX 01 00:00:00
  TRACK 02 AUDIO
    TITLE "10:cjc026_07761"
    INDEX 01 00:00:08
  TRACK 03 AUDIO
    TITLE "0:"
    INDEX 01 00:01:33
  TRACK 04 AUDIO
    TITLE "11:cjc026_07762"
    INDEX 01 00:01:70
  TRACK 05 AUDIO
    TITLE "0:"
    INDEX 01 00:03:34
  TRACK 06 AUDIO
    TITLE "12:cjc026_07763"
    INDEX 01 00:03:69
  TRACK 07 AUDIO
    TITLE "0:"
    INDEX 01 00:05:21
  TRACK 08 AUDIO
    TITLE "10:cjc026_07764"
    INDEX 01 00:05:59
  TRACK 09 AUDIO
    TITLE "0:"
    INDEX 01 00:07:17
  TRACK 10 AUDIO
    TITLE "11:cjc026_07765"
    INDEX 01 00:07:52
  TRACK 11 AUDIO
    TITLE "0:"
    INDEX 01 00:09:27
  TRACK 12 AUDIO
    TITLE "12:cjc026_07766"
    INDEX 01 00:09:62
  TRACK 13 AUDIO
    TITLE "0:"
    INDEX 01 00:11:20
  TRACK 14 AUDIO
    TITLE "10:cjc026_07767"
    INDEX 01 00:11:57
  TRACK 15 AUDIO
    TITLE "0:"
    INDEX 01 00:13:02
  TRACK 16 AUDIO
    TITLE "11:cjc026_07768"
    INDEX 01 00:13:37
  TRACK 17 AUDIO
    TITLE "0:"
    INDEX 01 00:14:67
  TRACK 18 AUDIO
    TITLE "12:cjc026_07769"
    INDEX 01 00:15:30
  TRACK 19 AUDIO
    TITLE "0:"
    INDEX 01 00:16:50
  TRACK 20 AUDIO
    TITLE "10:cjc026_07770"
    INDEX 01 00:17:12
  TRACK 21 AUDIO
    TITLE "0:"
    INDEX 01 00:18:29
  TRACK 22 AUDIO
    TITLE "11:cjc026_07771"
    INDEX 01 00:18:67
  TRACK 23 AUDIO
    TITLE "0:"
    INDEX 01 00:20:33
  TRACK 24 AUDIO
    TITLE "12:cjc026_07772"
    INDEX 01 00:20:68
  TRACK 25 AUDIO
    TITLE "0:"
    INDEX 01 00:22:13
  TRACK 26 AUDIO
    TITLE "10:cjc026_07773"
    INDEX 01 00:22:51
  TRACK 27 AUDIO
    TITLE "0:"
    INDEX 01 00:23:65
  TRACK 28 AUDIO
    TITLE "11:cjc026_07774"
    INDEX 01 00:24:25
  TRACK 29 AUDIO
    TITLE "0:"
    INDEX 01 00:26:02
  TRACK 30 AUDIO
    TITLE "12:cjc026_07775"
    INDEX 01 00:26:37
  TRACK 31 AUDIO
    TITLE "0:"
    INDEX 01 00:27:51
  TRACK 32 AUDIO
    TITLE "10:cjc026_07776"
    INDEX 01 00:28:11
  TRACK 33 AUDIO
    TITLE "0:"
    INDEX 01 00:29:28
  TRACK 34 AUDIO
    TITLE "11:cjc026_07777"
    INDEX 01 00:29:60
  TRACK 35 AUDIO
    TITLE "0:"
    INDEX 01 00:31:24
  TRACK 36 AUDIO
    TITLE "12:cjc026_07778"
    INDEX 01 00:31:61
  TRACK 37 AUDIO
    TITLE "0:"
    INDEX 01 00:33:00
  TRACK 38 AUDIO
    TITLE "10:cjc026_07779"
    INDEX 01 00:33:35
  TRACK 39 AUDIO
    TITLE "0:"
    INDEX 01 00:34:44
  TRACK 40 AUDIO
    TITLE "11:cjc026_07780"
    INDEX 01 00:35:04
  TRACK 41 AUDIO
    TITLE "0:"
    INDEX 01 00:36:40
  TRACK 42 AUDIO
    TITLE "12:cjc026_07781"
    INDEX 01 00:37:03
  TRACK 43 AUDIO
    TITLE "0:"
    INDEX 01 00:38:09
  TRACK 44 AUDIO
    TITLE "10:cjc026_07782"
    INDEX 01 00:38:47
  TRACK 45 AUDIO
    TITLE "0:"
    INDEX 01 00:39:72
  TRACK 46 AUDIO
    TITLE "11:cjc026_07783"
    INDEX 01 00:40:32
  TRACK 47 AUDIO
    TITLE "0:"
    INDEX 01 00:42:09
  TRACK 48 AUDIO
    TITLE "12:cjc026_07784"
    INDEX 01 00:42:46
  TRACK 49 AUDIO
    TITLE "0:"
    INDEX 01 00:43:71
  TRACK 50 AUDIO
    TITLE "10:cjc026_07785"
    INDEX 01 00:44:34
  TRACK 51 AUDIO
    TITLE "0:"
    INDEX 01 00:45:56
  TRACK 52 AUDIO
    TITLE "11:cjc026_07786"
    INDEX 01 00:46:19
  TRACK 53 AUDIO
    TITLE "0:"
    INDEX 01 00:47:57
  TRACK 54 AUDIO
    TITLE "12:cjc026_07787"
    INDEX 01 00:48:18
  TRACK 55 AUDIO
    TITLE "0:"
    INDEX 01 00:49:42
  TRACK 56 AUDIO
    TITLE "10:cjc026_07788"
    INDEX 01 00:50:03
  TRACK 57 AUDIO
    TITLE "0:"
    INDEX 01 00:51:19
  TRACK 58 AUDIO
    TITLE "11:cjc026_07789"
    INDEX 01 00:51:54
  TRACK 59 AUDIO
    TITLE "0:"
    INDEX 01 00:53:04
  TRACK 60 AUDIO
    TITLE "12:cjc026_07790"
    INDEX 01 00:53:39
  TRACK 61 AUDIO
    TITLE "0:"
    INDEX 01 00:54:56
  TRACK 62 AUDIO
    TITLE "10:cjc026_07791"
    INDEX 01 00:55:16
  TRACK 63 AUDIO
    TITLE "0:"
    INDEX 01 00:56:47
  TRACK 64 AUDIO
    TITLE "11:cjc026_07792"
    INDEX 01 00:57:09
  TRACK 65 AUDIO
    TITLE "0:"
    INDEX 01 00:58:32
  TRACK 66 AUDIO
    TITLE "12:cjc026_07793"
    INDEX 01 00:58:67
  TRACK 67 AUDIO
    TITLE "0:"
    INDEX 01 01:00:22
  TRACK 68 AUDIO
    TITLE "10:cjc026_07794"
    INDEX 01 01:00:60
  TRACK 69 AUDIO
    TITLE "0:"
    INDEX 01 01:02:07
  TRACK 70 AUDIO
    TITLE "11:cjc026_07795"
    INDEX 01 01:02:42
  TRACK 71 AUDIO
    TITLE "0:"
    INDEX 01 01:03:70
  TRACK 72 AUDIO
    TITLE "12:cjc026_07796"
    INDEX 01 01:04:33
  TRACK 73 AUDIO
    TITLE "0:"
    INDEX 01 01:05:55
